<svg width="46" height="47" viewBox="0 0 46 47" fill="none" xmlns="http://www.w3.org/2000/svg">
<path d="M44.5642 36.5452C42.8082 34.7761 38.5553 32.1942 36.4919 31.1537C33.8048 29.8003 33.5837 29.6898 31.4716 31.2588C30.0628 32.3059 29.1262 33.2413 27.4775 32.8897C25.8287 32.5381 22.2459 30.5555 19.1088 27.4286C15.9716 24.3016 13.874 20.6151 13.5212 18.972C13.1685 17.3289 14.1194 16.4034 15.1567 14.9914C16.6185 13.0011 16.508 12.6694 15.2584 9.98248C14.2842 7.89267 11.627 3.67987 9.85107 1.93283C7.95131 0.0564182 7.95131 0.388134 6.72719 0.896766C5.73062 1.31604 4.77453 1.8257 3.87092 2.41935C2.10165 3.59473 1.1197 4.57108 0.432999 6.03837C-0.2537 7.50566 -0.562217 10.9456 2.98407 17.3875C6.53036 23.8294 9.0184 27.1234 14.1681 32.2584C19.3178 37.3933 23.2776 40.1543 29.0665 43.4007C36.2276 47.4112 38.9744 46.6294 40.4462 45.9439C41.9181 45.2583 42.8989 44.2853 44.0766 42.5161C44.6718 41.6141 45.1826 40.6591 45.6026 39.6634C46.1123 38.4438 46.4441 38.4438 44.5642 36.5452Z" fill="#F9EAB6"/>
</svg>
