<svg>
  <symbol version="1.1" xmlns="http://www.w3.org/2000/svg" xmlns:xlink="http://www.w3.org/1999/xlink" viewBox="0 0 20 20" id="inst">
    <title>instagram [#167]</title>
    <desc>Created with Sketch.</desc>
    <defs></defs>
    <g id="Page-1" stroke="none" stroke-width="1" fill="none" fill-rule="evenodd">
      <g id="Dribbble-Light-Preview" transform="translate(-340.000000, -7439.000000)" fill="#000000">
        <g id="icons" transform="translate(56.000000, 160.000000)">
          <path d="M289.869652,7279.12273 C288.241769,7279.19618 286.830805,7279.5942 285.691486,7280.72871 C284.548187,7281.86918 284.155147,7283.28558 284.081514,7284.89653 C284.035742,7285.90201 283.768077,7293.49818 284.544207,7295.49028 C285.067597,7296.83422 286.098457,7297.86749 287.454694,7298.39256 C288.087538,7298.63872 288.809936,7298.80547 289.869652,7298.85411 C298.730467,7299.25511 302.015089,7299.03674 303.400182,7295.49028 C303.645956,7294.859 303.815113,7294.1374 303.86188,7293.08031 C304.26686,7284.19677 303.796207,7282.27117 302.251908,7280.72871 C301.027016,7279.50685 299.5862,7278.67508 289.869652,7279.12273 M289.951245,7297.06748 C288.981083,7297.0238 288.454707,7296.86201 288.103459,7296.72603 C287.219865,7296.3826 286.556174,7295.72155 286.214876,7294.84312 C285.623823,7293.32944 285.819846,7286.14023 285.872583,7284.97693 C285.924325,7283.83745 286.155174,7282.79624 286.959165,7281.99226 C287.954203,7280.99968 289.239792,7280.51332 297.993144,7280.90837 C299.135448,7280.95998 300.179243,7281.19026 300.985224,7281.99226 C301.980262,7282.98483 302.473801,7284.28014 302.071806,7292.99991 C302.028024,7293.96767 301.865833,7294.49274 301.729513,7294.84312 C300.829003,7297.15085 298.757333,7297.47145 289.951245,7297.06748 M298.089663,7283.68956 C298.089663,7284.34665 298.623998,7284.88065 299.283709,7284.88065 C299.943419,7284.88065 300.47875,7284.34665 300.47875,7283.68956 C300.47875,7283.03248 299.943419,7282.49847 299.283709,7282.49847 C298.623998,7282.49847 298.089663,7283.03248 298.089663,7283.68956 M288.862673,7288.98792 C288.862673,7291.80286 291.150266,7294.08479 293.972194,7294.08479 C296.794123,7294.08479 299.081716,7291.80286 299.081716,7288.98792 C299.081716,7286.17298 296.794123,7283.89205 293.972194,7283.89205 C291.150266,7283.89205 288.862673,7286.17298 288.862673,7288.98792 M290.655732,7288.98792 C290.655732,7287.16159 292.140329,7285.67967 293.972194,7285.67967 C295.80406,7285.67967 297.288657,7287.16159 297.288657,7288.98792 C297.288657,7290.81525 295.80406,7292.29716 293.972194,7292.29716 C292.140329,7292.29716 290.655732,7290.81525 290.655732,7288.98792" id="instagram-[#167]" fill="currentColor"></path>
        </g>
      </g>
    </g>
  </symbol>
  
  <symbol fill="none" xmlns="http://www.w3.org/2000/svg" viewBox="0 0 21 20" id="facebook">
    <path fill-rule="evenodd" clip-rule="evenodd" d="M20.2039 10.2531C20.2039 5.04834 15.8214 0.828125 10.4164 0.828125C5.01143 0.828125 0.628906 5.04834 0.628906 10.2531C0.628906 14.9572 4.20746 18.8564 8.88711 19.5641V12.9784H6.40135V10.2531H8.88711V8.17668C8.88711 5.81496 10.3487 4.50934 12.5841 4.50934C13.655 4.50934 14.7753 4.69364 14.7753 4.69364V7.01328H13.5405C12.3254 7.01328 11.9453 7.73951 11.9453 8.48594V10.2531H14.6595L14.2261 12.9784H11.9457V19.5649C16.6254 18.8576 20.2039 14.9585 20.2039 10.2531Z" fill="currentColor"></path>
  </symbol>

  <symbol fill="none" xmlns="http://www.w3.org/2000/svg" viewBox="0 0 22 18" id="twitter">
    <path d="M21.3599 2.64532C20.5732 2.98716 19.7408 3.21237 18.889 3.31384C19.7842 2.78968 20.4574 1.95695 20.7823 0.971832C19.936 1.46671 19.0116 1.81394 18.0488 1.99865C17.6433 1.57373 17.1557 1.2357 16.6156 1.0051C16.0754 0.774503 15.494 0.656148 14.9067 0.657234C12.5289 0.657234 10.6046 2.55356 10.6046 4.8912C10.6029 5.21636 10.6402 5.54055 10.7156 5.85684C9.01051 5.77691 7.34088 5.34194 5.81353 4.57977C4.28618 3.8176 2.93474 2.74501 1.84567 1.43062C1.46359 2.07473 1.26153 2.80963 1.2606 3.55853C1.2606 5.02665 2.02656 6.32437 3.18315 7.08465C2.4979 7.06839 1.8267 6.88702 1.22652 6.55595V6.60838C1.22652 8.66201 2.71212 10.3705 4.67836 10.7593C4.30862 10.8579 3.9276 10.9078 3.54494 10.9079C3.27341 10.9084 3.0025 10.882 2.73616 10.8292C3.28277 12.5115 4.87368 13.7349 6.75821 13.7699C5.22689 14.95 3.34683 15.5879 1.41353 15.5832C1.07037 15.5827 0.727518 15.5622 0.386719 15.522C2.35347 16.7779 4.63967 17.4422 6.97318 17.4358C14.8976 17.4358 19.2268 10.9822 19.2268 5.38494C19.2268 5.20143 19.222 5.01791 19.2132 4.83877C20.0535 4.24106 20.7805 3.49828 21.3599 2.64532Z" fill="currentColor"></path>
  </symbol>

  <symbol fill="none" xmlns="http://www.w3.org/2000/svg" viewBox="0 0 21 20" id="pintarest">
    <path d="M10.7459 0C5.25387 0 0.800781 4.4511 0.800781 9.94064C0.800781 14.0101 3.25153 17.5071 6.75451 19.047C6.72787 18.3547 6.75007 17.5204 6.92766 16.766C7.11857 15.9583 8.20631 11.3474 8.20631 11.3474C8.20631 11.3474 7.88665 10.7128 7.88665 9.77644C7.88665 8.3031 8.73908 7.20253 9.80463 7.20253C10.7103 7.20253 11.1454 7.88151 11.1454 8.69362C11.1454 9.60337 10.5638 10.9613 10.2664 12.2217C10.0177 13.2779 10.7947 14.1343 11.838 14.1343C13.7205 14.1343 14.9903 11.7158 14.9903 8.84894C14.9903 6.66999 13.5207 5.04132 10.8524 5.04132C7.83781 5.04132 5.95535 7.29128 5.95535 9.80307C5.95535 10.6684 6.21286 11.2808 6.61243 11.7513C6.79447 11.9687 6.8211 12.0575 6.75451 12.306C6.70567 12.4879 6.59912 12.9273 6.55028 13.1048C6.48368 13.3577 6.27945 13.4465 6.05302 13.3533C4.66338 12.7853 4.01517 11.2675 4.01517 9.55455C4.01517 6.73212 6.39933 3.34609 11.1232 3.34609C14.9192 3.34609 17.4188 6.09308 17.4188 9.03977C17.4188 12.9406 15.2478 15.8518 12.0511 15.8518C10.9767 15.8518 9.9689 15.2704 9.6226 14.6136C9.6226 14.6136 9.04543 16.9035 8.92111 17.3473C8.71244 18.115 8.29955 18.8783 7.92217 19.4774C8.83759 19.7474 9.78698 19.8849 10.7414 19.8857C16.2334 19.8857 20.6865 15.4346 20.6865 9.94508C20.6865 4.45554 16.2378 0 10.7459 0Z" fill="currentColor"></path>
  </symbol>

</svg>